<svg width="28" height="28" viewBox="0 0 28 28" fill="none" xmlns="http://www.w3.org/2000/svg">
<g filter="url(#filter0_d_24196_813)">
<rect x="4" width="20" height="20" rx="10" fill="#7DB54F"/>
<rect x="4.5" y="0.5" width="19" height="19" rx="9.5" stroke="black"/>
</g>
<path d="M10.1309 11.76H11.5309V6.92L11.6309 6.33L11.2309 6.8L10.1309 7.59L9.75089 7.08L11.9509 5.38H12.3109V11.76H13.6809V12.5H10.1309V11.76ZM17.9601 7.09C17.9601 7.44333 17.8934 7.80667 17.7601 8.18C17.6334 8.54667 17.4634 8.91667 17.2501 9.29C17.0434 9.66333 16.8101 10.03 16.5501 10.39C16.2901 10.7433 16.0301 11.08 15.7701 11.4L15.2801 11.83V11.87L15.9201 11.76H18.1001V12.5H14.1201V12.21C14.2668 12.0567 14.4434 11.8667 14.6501 11.64C14.8568 11.4133 15.0701 11.1633 15.2901 10.89C15.5168 10.61 15.7368 10.3167 15.9501 10.01C16.1701 9.69667 16.3668 9.38 16.5401 9.06C16.7201 8.74 16.8634 8.42333 16.9701 8.11C17.0768 7.79667 17.1301 7.5 17.1301 7.22C17.1301 6.89333 17.0368 6.62333 16.8501 6.41C16.6634 6.19 16.3801 6.08 16.0001 6.08C15.7468 6.08 15.5001 6.13333 15.2601 6.24C15.0201 6.34 14.8134 6.45667 14.6401 6.59L14.3101 6.02C14.5434 5.82 14.8201 5.66333 15.1401 5.55C15.4601 5.43667 15.8034 5.38 16.1701 5.38C16.4568 5.38 16.7101 5.42333 16.9301 5.51C17.1501 5.59 17.3368 5.70667 17.4901 5.86C17.6434 6.01333 17.7601 6.19667 17.8401 6.41C17.9201 6.61667 17.9601 6.84333 17.9601 7.09Z" fill="white"/>
<defs>
<filter id="filter0_d_24196_813" x="0" y="0" width="28" height="28" filterUnits="userSpaceOnUse" color-interpolation-filters="sRGB">
<feFlood flood-opacity="0" result="BackgroundImageFix"/>
<feColorMatrix in="SourceAlpha" type="matrix" values="0 0 0 0 0 0 0 0 0 0 0 0 0 0 0 0 0 0 127 0" result="hardAlpha"/>
<feOffset dy="4"/>
<feGaussianBlur stdDeviation="2"/>
<feComposite in2="hardAlpha" operator="out"/>
<feColorMatrix type="matrix" values="0 0 0 0 0 0 0 0 0 0 0 0 0 0 0 0 0 0 0.25 0"/>
<feBlend mode="normal" in2="BackgroundImageFix" result="effect1_dropShadow_24196_813"/>
<feBlend mode="normal" in="SourceGraphic" in2="effect1_dropShadow_24196_813" result="shape"/>
</filter>
</defs>
</svg>
